<svg xmlns="http://www.w3.org/2000/svg" viewBox="0 0 294.56 144.82"><path d="M272.69 0v107.64L249 0h-30.7v74.62L204.6 0h-31.48l-4.06 22.28-13.37 73.23L138.3.05H119l-17.45 95.56L84.14.05 64.83.1H50.09v60.38H24.53V.14H0v144.68h24.53V83.05h25.56v61.77h24.74V70.57l10.54 74.25h32.36L128.63 68l10.9 76.81h32.36l4.39-27.22 3-21 .52-3.71c1.45-10.36 16.39-10.43 17.93-.08l.44 3 3.34 22.08 4.55 27h34.32v-105l20.86 91.82c3.07 11.3 6.34 13.15 11.86 13.15h21.46V0Zm-74.28 76.09-3 6.56h-12.83l-3-6.56a19.32 19.32 0 1 1 18.79 0Z" style="fill:#1e1f21" data-name="Layer 1"/></svg>